<svg width="72" height="20" viewBox="0 0 72 20" fill="none" xmlns="http://www.w3.org/2000/svg">
<path d="M5.88 19.432C4.872 19.432 3.984 19.256 3.216 18.904C2.448 18.552 1.856 18.064 1.44 17.44C1.024 16.8 0.816 16.064 0.816 15.232C0.816 14.528 0.96 13.888 1.248 13.312C1.552 12.736 1.952 12.28 2.448 11.944C2.96 11.608 3.52 11.44 4.128 11.44C4.688 11.44 5.16 11.584 5.544 11.872C5.928 12.144 6.168 12.528 6.264 13.024C5.432 13.024 4.768 13.248 4.272 13.696C3.776 14.128 3.528 14.72 3.528 15.472C3.528 16.16 3.736 16.712 4.152 17.128C4.568 17.544 5.12 17.752 5.808 17.752C6.656 17.752 7.352 17.472 7.896 16.912C8.456 16.336 8.736 15.616 8.736 14.752C8.736 14 8.528 13.288 8.112 12.616C7.696 11.944 7.072 11.128 6.24 10.168C5.376 9.176 4.72 8.328 4.272 7.624C3.84 6.904 3.624 6.12 3.624 5.272C3.624 4.44 3.856 3.696 4.32 3.04C4.784 2.368 5.424 1.84 6.24 1.456C7.056 1.072 7.976 0.879999 9 0.879999C10.296 0.879999 11.328 1.184 12.096 1.792C12.88 2.4 13.272 3.216 13.272 4.24C13.272 4.912 13.104 5.456 12.768 5.872C12.432 6.288 11.992 6.496 11.448 6.496C10.84 6.496 10.352 6.248 9.984 5.752C10.288 5.528 10.528 5.232 10.704 4.864C10.88 4.496 10.968 4.112 10.968 3.712C10.968 3.2 10.816 2.792 10.512 2.488C10.208 2.184 9.792 2.032 9.264 2.032C8.624 2.032 8.096 2.264 7.68 2.728C7.28 3.176 7.08 3.752 7.08 4.456C7.08 5.096 7.264 5.696 7.632 6.256C8 6.8 8.576 7.504 9.36 8.368C10 9.056 10.512 9.648 10.896 10.144C11.296 10.64 11.632 11.216 11.904 11.872C12.192 12.512 12.336 13.208 12.336 13.96C12.336 14.984 12.048 15.912 11.472 16.744C10.912 17.576 10.136 18.232 9.144 18.712C8.168 19.192 7.08 19.432 5.88 19.432ZM16.5675 19.144C15.6555 19.144 14.8955 18.832 14.2875 18.208C13.6795 17.584 13.3755 16.608 13.3755 15.28C13.3755 14.096 13.6075 12.856 14.0715 11.56C14.5515 10.248 15.2555 9.144 16.1835 8.248C17.1275 7.336 18.2475 6.88 19.5435 6.88C20.1995 6.88 20.6875 6.992 21.0075 7.216C21.3275 7.44 21.4875 7.736 21.4875 8.104V8.272L21.7515 7H25.2075L23.4795 15.16C23.4155 15.4 23.3835 15.656 23.3835 15.928C23.3835 16.616 23.7115 16.96 24.3675 16.96C24.8155 16.96 25.1995 16.752 25.5195 16.336C25.8555 15.92 26.1195 15.376 26.3115 14.704H27.3195C26.7275 16.432 25.9915 17.608 25.1115 18.232C24.2475 18.84 23.3755 19.144 22.4955 19.144C21.8235 19.144 21.2795 18.96 20.8635 18.592C20.4635 18.208 20.2235 17.656 20.1435 16.936C19.6795 17.592 19.1595 18.128 18.5835 18.544C18.0235 18.944 17.3515 19.144 16.5675 19.144ZM18.1275 16.816C18.5275 16.816 18.9195 16.632 19.3035 16.264C19.7035 15.88 19.9755 15.36 20.1195 14.704L21.2715 9.28C21.2715 9.072 21.1915 8.872 21.0315 8.68C20.8715 8.472 20.6235 8.368 20.2875 8.368C19.6475 8.368 19.0715 8.744 18.5595 9.496C18.0475 10.232 17.6475 11.128 17.3595 12.184C17.0715 13.224 16.9275 14.144 16.9275 14.944C16.9275 15.744 17.0395 16.256 17.2635 16.48C17.5035 16.704 17.7915 16.816 18.1275 16.816ZM29.0563 19.144C28.2883 19.144 27.6403 19 27.1123 18.712C26.5843 18.408 26.1923 18.024 25.9363 17.56C25.6803 17.08 25.5523 16.584 25.5523 16.072C25.5523 15.544 25.6803 15.088 25.9363 14.704C26.1763 14.304 26.4723 14.016 26.8243 13.84C27.4483 12.72 27.9923 11.592 28.4563 10.456C28.9203 9.304 29.3603 8.064 29.7763 6.736L33.3283 6.256C33.4083 8.304 33.5443 10.52 33.7363 12.904C33.8163 13.864 33.8563 14.56 33.8563 14.992C33.8563 15.36 33.8243 15.664 33.7603 15.904C34.5123 15.472 35.0883 15.072 35.4883 14.704H36.4963C35.4723 15.888 34.2483 16.888 32.8243 17.704C32.3603 18.2 31.7843 18.568 31.0963 18.808C30.4243 19.032 29.7443 19.144 29.0563 19.144ZM28.2883 17.248C28.8803 17.248 29.3763 17.072 29.7763 16.72C30.1763 16.368 30.3763 15.8 30.3763 15.016C30.3763 14.536 30.3283 13.864 30.2323 13C30.0723 11.176 29.9683 9.952 29.9203 9.328C29.5363 10.592 28.8883 12.104 27.9763 13.864C28.3443 14.056 28.5283 14.336 28.5283 14.704C28.5283 15.008 28.4243 15.28 28.2163 15.52C28.0243 15.76 27.7763 15.88 27.4723 15.88C27.1363 15.88 26.9203 15.776 26.8243 15.568C26.8243 16.144 26.9363 16.568 27.1603 16.84C27.4003 17.112 27.7763 17.248 28.2883 17.248ZM44.1484 19.144C43.1724 19.144 42.4524 18.888 41.9884 18.376C41.5404 17.848 41.3164 17.2 41.3164 16.432C41.3164 16.096 41.3564 15.72 41.4364 15.304C41.5164 14.872 41.5964 14.456 41.6764 14.056C41.7724 13.656 41.8364 13.4 41.8684 13.288C41.9964 12.728 42.1164 12.176 42.2284 11.632C42.3404 11.088 42.3964 10.648 42.3964 10.312C42.3964 9.496 42.1084 9.088 41.5324 9.088C41.1164 9.088 40.7484 9.296 40.4284 9.712C40.1084 10.112 39.8524 10.64 39.6604 11.296L38.0284 19H34.5724L38.0524 2.68L41.6044 2.2L40.3084 8.248C41.1084 7.352 42.0444 6.904 43.1164 6.904C43.9324 6.904 44.5804 7.128 45.0604 7.576C45.5404 8.024 45.7804 8.704 45.7804 9.616C45.7804 10.08 45.7244 10.6 45.6124 11.176C45.5004 11.736 45.3404 12.424 45.1324 13.24C45.0044 13.736 44.8844 14.224 44.7724 14.704C44.6764 15.168 44.6284 15.536 44.6284 15.808C44.6284 16.128 44.7004 16.376 44.8444 16.552C44.9884 16.728 45.2364 16.816 45.5884 16.816C46.0684 16.816 46.4524 16.648 46.7404 16.312C47.0284 15.96 47.3164 15.424 47.6044 14.704H48.6124C48.0204 16.464 47.3324 17.648 46.5484 18.256C45.7804 18.848 44.9804 19.144 44.1484 19.144ZM50.4816 19.144C49.5696 19.144 48.8096 18.832 48.2016 18.208C47.5936 17.584 47.2896 16.608 47.2896 15.28C47.2896 14.096 47.5216 12.856 47.9856 11.56C48.4656 10.248 49.1696 9.144 50.0976 8.248C51.0416 7.336 52.1616 6.88 53.4576 6.88C54.1136 6.88 54.6016 6.992 54.9216 7.216C55.2416 7.44 55.4016 7.736 55.4016 8.104V8.272L55.6656 7H59.1216L57.3936 15.16C57.3296 15.4 57.2976 15.656 57.2976 15.928C57.2976 16.248 57.3696 16.48 57.5136 16.624C57.6736 16.752 57.9296 16.816 58.2816 16.816C58.5056 16.816 58.6816 16.784 58.8096 16.72C58.4576 17.616 58.1216 18.248 57.8016 18.616C57.4816 18.968 57.0176 19.144 56.4096 19.144C55.7536 19.144 55.2176 18.952 54.8016 18.568C54.4016 18.168 54.1536 17.616 54.0576 16.912C53.0816 18.4 51.8896 19.144 50.4816 19.144ZM52.0416 16.816C52.4416 16.816 52.8336 16.632 53.2176 16.264C53.6176 15.88 53.8896 15.36 54.0336 14.704L55.1856 9.28C55.1856 9.072 55.1056 8.872 54.9456 8.68C54.7856 8.472 54.5376 8.368 54.2016 8.368C53.5616 8.368 52.9856 8.744 52.4736 9.496C51.9616 10.232 51.5616 11.128 51.2736 12.184C50.9856 13.224 50.8416 14.144 50.8416 14.944C50.8416 15.744 50.9536 16.256 51.1776 16.48C51.4176 16.704 51.7056 16.816 52.0416 16.816ZM63.0047 19.096C62.2687 19.096 61.6847 18.84 61.2527 18.328C60.8207 17.8 60.6047 17.088 60.6047 16.192C60.6047 15.232 60.8447 14.248 61.3247 13.24C61.8047 12.232 62.3567 11.304 62.9807 10.456C63.6207 9.592 64.4367 8.576 65.4287 7.408C66.2287 6.448 66.7967 5.736 67.1327 5.272C67.4847 4.792 67.6607 4.4 67.6607 4.096C67.3727 4.176 67.0927 4.248 66.8207 4.312C66.5487 4.376 66.2927 4.408 66.0527 4.408C65.6367 4.408 65.1327 4.32 64.5407 4.144C64.4767 4.128 64.2687 4.08 63.9167 4C63.5807 3.92 63.2447 3.88 62.9087 3.88C62.4447 3.88 62.0287 3.976 61.6607 4.168C61.2927 4.36 60.9247 4.68 60.5567 5.128L60.4847 5.104C60.2767 4.64 60.1727 4.152 60.1727 3.64C60.1727 2.792 60.4767 2.12 61.0847 1.624C61.6927 1.112 62.4847 0.855999 63.4607 0.855999C63.8127 0.855999 64.1487 0.887999 64.4687 0.951999C64.7887 1 65.1647 1.088 65.5967 1.216C66.1087 1.36 66.5407 1.464 66.8927 1.528C67.2447 1.592 67.6287 1.624 68.0447 1.624C68.9407 1.624 70.0207 1.456 71.2847 1.12L71.3087 1.216C71.3087 1.584 71.1167 2.104 70.7327 2.776C70.3647 3.432 69.7727 4.392 68.9567 5.656C67.9967 7.144 67.2047 8.424 66.5807 9.496C65.9567 10.552 65.4127 11.68 64.9487 12.88C64.4847 14.064 64.2527 15.16 64.2527 16.168C64.2527 17 64.3967 17.824 64.6847 18.64C64.1247 18.944 63.5647 19.096 63.0047 19.096Z" fill="#1B1B1B"/>
</svg>
