<svg width="95" height="28" viewBox="0 0 95 28" fill="none" xmlns="http://www.w3.org/2000/svg">
<path d="M11.2852 7.98047V11.5664H0.210938V7.98047H11.2852ZM2.95312 3.28711H8.01562V21.2695C8.01562 21.8203 8.08594 22.2422 8.22656 22.5352C8.37891 22.8281 8.60156 23.0332 8.89453 23.1504C9.1875 23.2559 9.55664 23.3086 10.002 23.3086C10.3184 23.3086 10.5996 23.2969 10.8457 23.2734C11.1035 23.2383 11.3203 23.2031 11.4961 23.168L11.5137 26.8945C11.0801 27.0352 10.6113 27.1465 10.1074 27.2285C9.60352 27.3105 9.04688 27.3516 8.4375 27.3516C7.32422 27.3516 6.35156 27.1699 5.51953 26.8066C4.69922 26.4316 4.06641 25.834 3.62109 25.0137C3.17578 24.1934 2.95312 23.1152 2.95312 21.7793V3.28711ZM19.5117 7.98047V27H14.4316V7.98047H19.5117ZM14.1152 3.02344C14.1152 2.28516 14.373 1.67578 14.8887 1.19531C15.4043 0.714844 16.0957 0.474609 16.9629 0.474609C17.8184 0.474609 18.5039 0.714844 19.0195 1.19531C19.5469 1.67578 19.8105 2.28516 19.8105 3.02344C19.8105 3.76172 19.5469 4.37109 19.0195 4.85156C18.5039 5.33203 17.8184 5.57227 16.9629 5.57227C16.0957 5.57227 15.4043 5.33203 14.8887 4.85156C14.373 4.37109 14.1152 3.76172 14.1152 3.02344ZM28.6523 12.041V27H23.5898V7.98047H28.3359L28.6523 12.041ZM27.9141 16.8223H26.543C26.543 15.416 26.7246 14.1504 27.0879 13.0254C27.4512 11.8887 27.9609 10.9219 28.6172 10.125C29.2734 9.31641 30.0527 8.70117 30.9551 8.2793C31.8691 7.8457 32.8887 7.62891 34.0137 7.62891C34.9043 7.62891 35.7188 7.75781 36.457 8.01562C37.1953 8.27344 37.8281 8.68359 38.3555 9.24609C38.8945 9.80859 39.3047 10.5527 39.5859 11.4785C39.8789 12.4043 40.0254 13.5352 40.0254 14.8711V27H34.9277V14.8535C34.9277 14.0098 34.8105 13.3535 34.5762 12.8848C34.3418 12.416 33.9961 12.0879 33.5391 11.9004C33.0938 11.7012 32.543 11.6016 31.8867 11.6016C31.207 11.6016 30.6152 11.7363 30.1113 12.0059C29.6191 12.2754 29.209 12.6504 28.8809 13.1309C28.5645 13.5996 28.3242 14.1504 28.1602 14.7832C27.9961 15.416 27.9141 16.0957 27.9141 16.8223ZM55.1074 22.8516V0H60.2051V27H55.6172L55.1074 22.8516ZM43.084 17.7188V17.3496C43.084 15.8965 43.248 14.5781 43.5762 13.3945C43.9043 12.1992 44.3848 11.1738 45.0176 10.3184C45.6504 9.46289 46.4297 8.80078 47.3555 8.33203C48.2812 7.86328 49.3359 7.62891 50.5195 7.62891C51.6328 7.62891 52.6055 7.86328 53.4375 8.33203C54.2812 8.80078 54.9961 9.46875 55.582 10.3359C56.1797 11.1914 56.6602 12.2051 57.0234 13.377C57.3867 14.5371 57.6504 15.8086 57.8145 17.1914V18C57.6504 19.3242 57.3867 20.5547 57.0234 21.6914C56.6602 22.8281 56.1797 23.8242 55.582 24.6797C54.9961 25.5234 54.2812 26.1797 53.4375 26.6484C52.5938 27.1172 51.6094 27.3516 50.4844 27.3516C49.3008 27.3516 48.2461 27.1113 47.3203 26.6309C46.4062 26.1504 45.6328 25.4766 45 24.6094C44.3789 23.7422 43.9043 22.7227 43.5762 21.5508C43.248 20.3789 43.084 19.1016 43.084 17.7188ZM48.1465 17.3496V17.7188C48.1465 18.5039 48.2051 19.2363 48.3223 19.916C48.4512 20.5957 48.6562 21.1992 48.9375 21.7266C49.2305 22.2422 49.6055 22.6465 50.0625 22.9395C50.5312 23.2207 51.0996 23.3613 51.7676 23.3613C52.6348 23.3613 53.3496 23.168 53.9121 22.7812C54.4746 22.3828 54.9023 21.8379 55.1953 21.1465C55.5 20.4551 55.6758 19.6582 55.7227 18.7559V16.4531C55.6875 15.7148 55.582 15.0527 55.4062 14.4668C55.2422 13.8691 54.9961 13.3594 54.668 12.9375C54.3516 12.5156 53.9531 12.1875 53.4727 11.9531C53.0039 11.7188 52.4473 11.6016 51.8027 11.6016C51.1465 11.6016 50.584 11.7539 50.1152 12.0586C49.6465 12.3516 49.2656 12.7559 48.9727 13.2715C48.6914 13.7871 48.4805 14.3965 48.3398 15.0996C48.2109 15.791 48.1465 16.541 48.1465 17.3496ZM72.9141 27.3516C71.4375 27.3516 70.1133 27.1172 68.9414 26.6484C67.7695 26.168 66.7734 25.5059 65.9531 24.6621C65.1445 23.8184 64.5234 22.8398 64.0898 21.7266C63.6562 20.6016 63.4395 19.4062 63.4395 18.1406V17.4375C63.4395 15.9961 63.6445 14.6777 64.0547 13.4824C64.4648 12.2871 65.0508 11.25 65.8125 10.3711C66.5859 9.49219 67.5234 8.81836 68.625 8.34961C69.7266 7.86914 70.9688 7.62891 72.3516 7.62891C73.6992 7.62891 74.8945 7.85156 75.9375 8.29688C76.9805 8.74219 77.8535 9.375 78.5566 10.1953C79.2715 11.0156 79.8105 12 80.1738 13.1484C80.5371 14.2852 80.7188 15.5508 80.7188 16.9453V19.0547H65.6016V15.6797H75.7441V15.293C75.7441 14.5898 75.6152 13.9629 75.3574 13.4121C75.1113 12.8496 74.7363 12.4043 74.2324 12.0762C73.7285 11.748 73.084 11.584 72.2988 11.584C71.6309 11.584 71.0566 11.7305 70.5762 12.0234C70.0957 12.3164 69.7031 12.7266 69.3984 13.2539C69.1055 13.7812 68.8828 14.4023 68.7305 15.1172C68.5898 15.8203 68.5195 16.5938 68.5195 17.4375V18.1406C68.5195 18.9023 68.625 19.6055 68.8359 20.25C69.0586 20.8945 69.3691 21.4512 69.7676 21.9199C70.1777 22.3887 70.6699 22.752 71.2441 23.0098C71.8301 23.2676 72.4922 23.3965 73.2305 23.3965C74.1445 23.3965 74.9941 23.2207 75.7793 22.8691C76.5762 22.5059 77.2617 21.9609 77.8359 21.2344L80.2969 23.9062C79.8984 24.4805 79.3535 25.0312 78.6621 25.5586C77.9824 26.0859 77.1621 26.5195 76.2012 26.8594C75.2402 27.1875 74.1445 27.3516 72.9141 27.3516ZM88.6641 12.1289V27H83.6016V7.98047H88.3652L88.6641 12.1289ZM94.3945 7.85742L94.3066 12.5508C94.0605 12.5156 93.7617 12.4863 93.4102 12.4629C93.0703 12.4277 92.7598 12.4102 92.4785 12.4102C91.7637 12.4102 91.1426 12.5039 90.6152 12.6914C90.0996 12.8672 89.666 13.1309 89.3145 13.4824C88.9746 13.834 88.7168 14.2617 88.541 14.7656C88.377 15.2695 88.2832 15.8438 88.2598 16.4883L87.2402 16.1719C87.2402 14.9414 87.3633 13.8105 87.6094 12.7793C87.8555 11.7363 88.2129 10.8281 88.6816 10.0547C89.1621 9.28125 89.748 8.68359 90.4395 8.26172C91.1309 7.83984 91.9219 7.62891 92.8125 7.62891C93.0938 7.62891 93.3809 7.65234 93.6738 7.69922C93.9668 7.73438 94.207 7.78711 94.3945 7.85742Z" fill="black"/>
</svg>
