<svg width="58" height="19" viewBox="0 0 58 19" fill="none" xmlns="http://www.w3.org/2000/svg">
<path d="M3.376 18.144C2.608 18.144 1.984 17.904 1.504 17.424C1.04 16.944 0.808 16.224 0.808 15.264C0.808 14.864 0.872 14.344 1 13.704L2.44 6.96H1.648L1.84 6H2.632L3.352 2.688L6.904 2.208L6.088 6H7.528L7.336 6.96H5.896L4.36 14.16C4.296 14.4 4.264 14.656 4.264 14.928C4.264 15.248 4.336 15.48 4.48 15.624C4.64 15.752 4.896 15.816 5.248 15.816C5.712 15.816 6.144 15.624 6.544 15.24C6.944 14.84 7.232 14.328 7.408 13.704H8.416C7.824 15.432 7.064 16.608 6.136 17.232C5.208 17.84 4.288 18.144 3.376 18.144ZM11.4064 4.704C10.8784 4.704 10.4304 4.52 10.0624 4.152C9.69444 3.784 9.51044 3.336 9.51044 2.808C9.51044 2.28 9.69444 1.832 10.0624 1.464C10.4304 1.08 10.8784 0.887999 11.4064 0.887999C11.9344 0.887999 12.3824 1.08 12.7504 1.464C13.1344 1.832 13.3264 2.28 13.3264 2.808C13.3264 3.336 13.1344 3.784 12.7504 4.152C12.3824 4.52 11.9344 4.704 11.4064 4.704ZM9.77444 18.144C9.00644 18.144 8.38244 17.904 7.90244 17.424C7.43844 16.944 7.20644 16.224 7.20644 15.264C7.20644 14.864 7.27044 14.344 7.39844 13.704L9.03044 6H12.4864L10.7584 14.16C10.6944 14.4 10.6624 14.656 10.6624 14.928C10.6624 15.248 10.7344 15.48 10.8784 15.624C11.0384 15.752 11.2944 15.816 11.6464 15.816C12.1104 15.816 12.5424 15.624 12.9424 15.24C13.3424 14.84 13.6304 14.328 13.8064 13.704H14.8144C14.2224 15.432 13.4624 16.608 12.5344 17.232C11.6064 17.84 10.6864 18.144 9.77444 18.144ZM22.4609 18.144C21.4849 18.144 20.7649 17.888 20.3009 17.376C19.8529 16.848 19.6289 16.2 19.6289 15.432C19.6289 15.096 19.6689 14.72 19.7489 14.304C19.8289 13.872 19.9089 13.456 19.9889 13.056C20.0849 12.656 20.1489 12.4 20.1809 12.288C20.3089 11.728 20.4289 11.176 20.5409 10.632C20.6529 10.088 20.7089 9.648 20.7089 9.312C20.7089 8.496 20.4209 8.088 19.8449 8.088C19.4289 8.088 19.0609 8.296 18.7409 8.712C18.4209 9.112 18.1649 9.64 17.9729 10.296L16.3409 18H12.8849L15.4289 6H18.8849L18.6209 7.248C19.4209 6.352 20.3569 5.904 21.4289 5.904C22.2449 5.904 22.8929 6.128 23.3729 6.576C23.8529 7.024 24.0929 7.704 24.0929 8.616C24.0929 9.08 24.0369 9.6 23.9249 10.176C23.8129 10.736 23.6529 11.424 23.4449 12.24C23.3169 12.736 23.1969 13.224 23.0849 13.704C22.9889 14.168 22.9409 14.536 22.9409 14.808C22.9409 15.128 23.0129 15.376 23.1569 15.552C23.3009 15.728 23.5489 15.816 23.9009 15.816C24.3809 15.816 24.7649 15.648 25.0529 15.312C25.3409 14.96 25.6289 14.424 25.9169 13.704H26.9249C26.3329 15.464 25.6449 16.648 24.8609 17.256C24.0929 17.848 23.2929 18.144 22.4609 18.144ZM28.7941 18.144C27.8821 18.144 27.1221 17.832 26.5141 17.208C25.9061 16.584 25.6021 15.608 25.6021 14.28C25.6021 13.096 25.8341 11.856 26.2981 10.56C26.7781 9.248 27.4821 8.144 28.4101 7.248C29.3541 6.336 30.4741 5.88 31.7701 5.88C32.4261 5.88 32.9141 5.992 33.2341 6.216C33.5541 6.44 33.7141 6.736 33.7141 7.104V7.2L34.8901 1.68L38.4421 1.2L35.6821 14.16C35.6181 14.4 35.5861 14.656 35.5861 14.928C35.5861 15.248 35.6581 15.48 35.8021 15.624C35.9621 15.752 36.2181 15.816 36.5701 15.816C37.0181 15.816 37.4021 15.624 37.7221 15.24C38.0581 14.856 38.3221 14.344 38.5141 13.704H39.5221C38.5461 16.568 36.9381 18 34.6981 18C34.0421 18 33.5061 17.824 33.0901 17.472C32.6901 17.12 32.4421 16.608 32.3461 15.936C31.9301 16.576 31.4261 17.104 30.8341 17.52C30.2581 17.936 29.5781 18.144 28.7941 18.144ZM30.3541 15.816C30.7381 15.816 31.1221 15.64 31.5061 15.288C31.9061 14.936 32.1781 14.448 32.3221 13.824V13.704L33.4981 8.208C33.3541 7.648 33.0261 7.368 32.5141 7.368C31.8741 7.368 31.2981 7.744 30.7861 8.496C30.2741 9.232 29.8741 10.128 29.5861 11.184C29.2981 12.224 29.1541 13.144 29.1541 13.944C29.1541 14.744 29.2661 15.256 29.4901 15.48C29.7301 15.704 30.0181 15.816 30.3541 15.816ZM41.9554 18.144C40.7714 18.144 39.8514 17.84 39.1954 17.232C38.5394 16.608 38.2114 15.64 38.2114 14.328C38.2114 13.224 38.4274 12.008 38.8594 10.68C39.2914 9.352 39.9954 8.208 40.9714 7.248C41.9474 6.272 43.1874 5.784 44.6914 5.784C46.4514 5.784 47.3314 6.552 47.3314 8.088C47.3314 8.984 47.0754 9.808 46.5634 10.56C46.0514 11.312 45.3714 11.92 44.5234 12.384C43.6754 12.832 42.7714 13.088 41.8114 13.152C41.7794 13.632 41.7634 13.952 41.7634 14.112C41.7634 14.896 41.8994 15.432 42.1714 15.72C42.4434 15.992 42.8834 16.128 43.4914 16.128C44.3554 16.128 45.0914 15.928 45.6994 15.528C46.3234 15.128 47.0034 14.52 47.7394 13.704H48.5554C46.7794 16.664 44.5794 18.144 41.9554 18.144ZM42.0034 12C42.5954 11.968 43.1554 11.76 43.6834 11.376C44.2274 10.992 44.6594 10.504 44.9794 9.912C45.3154 9.32 45.4834 8.696 45.4834 8.04C45.4834 7.384 45.2834 7.056 44.8834 7.056C44.3074 7.056 43.7394 7.56 43.1794 8.568C42.6354 9.576 42.2434 10.72 42.0034 12ZM49.3664 6H52.8224L52.5104 7.488C53.0544 7.008 53.5424 6.64 53.9744 6.384C54.4224 6.128 54.9024 6 55.4144 6C55.9264 6 56.3264 6.176 56.6144 6.528C56.9184 6.88 57.0704 7.304 57.0704 7.8C57.0704 8.264 56.9184 8.672 56.6144 9.024C56.3104 9.376 55.8864 9.552 55.3424 9.552C54.9904 9.552 54.7504 9.472 54.6224 9.312C54.5104 9.136 54.4224 8.888 54.3584 8.568C54.3104 8.36 54.2624 8.208 54.2144 8.112C54.1664 8.016 54.0784 7.968 53.9504 7.968C53.6144 7.968 53.3264 8.04 53.0864 8.184C52.8624 8.312 52.5664 8.544 52.1984 8.88L50.2784 18H46.8224L49.3664 6Z" fill="#1B1B1B"/>
</svg>
